<svg width="31" height="31" viewBox="0 0 31 31" fill="none" xmlns="http://www.w3.org/2000/svg">
<path d="M27.2759 0.0482818H26.6159C24.5977 0.0482818 22.5778 0.0490629 20.5588 0.0498439C18.5397 0.050625 16.5206 0.0514061 14.5016 0.0514061C9.80346 0.0514061 6.20196 0.0459386 2.81682 0.0350037C2.09433 0.0350037 1.37575 0.341963 0.846968 0.875432C0.315843 1.41281 0.0268481 2.10561 0.0338777 2.8281C0.0627772 5.73367 0.0573097 8.68688 0.0518423 11.544C0.0502801 12.6984 0.0479369 13.8521 0.0479369 15.0065V19.0985C0.0471559 21.826 0.0471559 24.5527 0.0479369 27.2802C0.048718 28.8493 1.22657 30.0334 2.78792 30.0334C6.86821 30.0342 10.9493 30.035 15.0296 30.035C19.1099 30.035 23.191 30.0342 27.2705 30.0334C28.8701 30.0334 30.0315 28.8712 30.0315 27.2692C30.0323 19.1188 30.0323 10.9692 30.0315 2.81794C30.0315 1.21441 28.8724 0.050625 27.2759 0.0490629V0.0482818ZM18.1281 21.8346C18.0664 21.7729 17.9836 21.6768 17.9836 21.555C17.9836 21.4331 18.0625 21.3394 18.1312 21.2722C19.1747 20.2342 20.2924 19.1212 21.3804 18.0159C21.4742 17.9207 21.5648 17.8738 21.6562 17.8738C21.7866 17.8738 21.8756 17.9652 21.9553 18.0464L21.985 18.0769C23.0301 19.1235 24.0751 20.1678 25.121 21.2136L26.3004 22.393C26.4956 22.5883 26.6917 22.7844 26.8862 22.9804C27.39 23.4842 27.9102 24.0059 28.4264 24.5136C28.6256 24.7081 28.7084 24.9096 28.6967 25.1674C28.6858 25.3947 28.6881 25.629 28.6904 25.8547C28.6912 25.9539 28.692 26.0531 28.692 26.1508C28.692 26.264 28.6928 26.3773 28.6928 26.4905C28.6944 26.7155 28.6951 26.9474 28.6897 27.1771C28.6654 28.1222 28.1093 28.6736 27.165 28.6892C26.9432 28.6924 26.7214 28.6931 26.4996 28.6931C26.3715 28.6931 25.8591 28.6924 25.731 28.6924C25.5795 28.6924 25.4287 28.6924 25.2725 28.6939C25.0804 28.6939 24.9288 28.6314 24.7953 28.4986C22.9605 26.66 20.5447 24.241 18.1281 21.8322V21.8346ZM1.3859 19.2867C1.3859 13.895 1.3859 8.50411 1.38669 3.11163V3.07179C1.38669 2.9437 1.38669 2.81092 1.40699 2.6797C1.5265 1.88769 1.99436 1.45498 2.79651 1.3925C2.85197 1.38859 2.90586 1.38859 2.95116 1.38859H27.1174C27.1556 1.38859 27.1955 1.38859 27.2338 1.39015C28.1078 1.43546 28.6389 1.96268 28.6904 2.83747C28.6944 2.91245 28.6936 2.98744 28.6936 3.06008V3.13115C28.6928 9.44998 28.6928 15.7688 28.6912 22.0876C28.6912 22.1126 28.6928 22.1384 28.6943 22.1634C28.7006 22.2571 28.7084 22.3735 28.6459 22.4915L28.6076 22.5633L28.5264 22.5539C28.3686 22.5352 28.2788 22.429 28.214 22.3516C28.1968 22.3313 28.1804 22.3118 28.1624 22.2939C26.712 20.8458 25.2623 19.3953 23.8127 17.9456L22.3747 16.5077L22.3224 16.4546C22.2021 16.3327 22.0881 16.2171 21.9428 16.1562C21.842 16.1156 21.7429 16.0937 21.6499 16.0937C21.4492 16.0937 21.257 16.189 21.0625 16.3859C20.3666 17.0912 19.6691 17.7972 18.9716 18.4994C18.7787 18.6931 18.585 18.8853 18.3905 19.079C18.0094 19.4586 17.6149 19.8491 17.2392 20.2443C17.1463 20.3427 17.0315 20.4427 16.8901 20.4427C16.7487 20.4427 16.6347 20.3451 16.5409 20.2506C14.6086 18.3073 12.638 16.3382 10.7314 14.434L9.46292 13.1663C9.30436 13.0062 9.16611 12.8679 8.95522 12.839C8.91773 12.8336 8.88024 12.8312 8.84431 12.8312C8.62171 12.8312 8.43191 12.9257 8.20852 13.1499C6.80417 14.5613 5.37247 15.9922 3.98842 17.3763C3.28702 18.0784 2.58484 18.7798 1.88423 19.4812C1.84205 19.5242 1.80534 19.5781 1.76707 19.6343C1.74676 19.6648 1.72645 19.696 1.70458 19.7249L1.64288 19.8077L1.55227 19.7601C1.51712 19.7421 1.48198 19.7226 1.44683 19.7038L1.38434 19.6695V19.2875L1.3859 19.2867ZM22.3521 28.6939C15.938 28.6939 9.52306 28.6939 3.10972 28.6955H3.09254C2.79729 28.6955 2.56063 28.6666 2.34818 28.6041C1.77331 28.4362 1.39918 27.9011 1.39293 27.2411C1.38356 26.1906 1.38434 25.1221 1.38512 24.0887C1.38512 23.4451 1.38512 22.8015 1.38356 22.1572C1.38356 21.9353 1.50228 21.7987 1.61241 21.6893L2.71684 20.5857C4.62186 18.6814 6.5925 16.7116 8.52564 14.7698C8.60609 14.6894 8.70528 14.6074 8.82947 14.6074C8.95366 14.6074 9.05832 14.6948 9.13253 14.7706C9.91125 15.5603 10.7095 16.357 11.482 17.1271C11.7452 17.3895 12.0084 17.652 12.2701 17.9144C15.6982 21.3425 19.1263 24.7706 22.5536 28.1995C22.602 28.2479 22.6505 28.2979 22.7137 28.3651C22.7481 28.401 22.7871 28.4416 22.8332 28.4908L23.0269 28.6931H22.3513L22.3521 28.6939Z" fill="#24577A"/>
<path d="M28.6944 26.4929C28.6959 26.7178 28.6967 26.9498 28.6913 27.1794C28.667 28.1245 28.1109 28.6759 27.1666 28.6916C26.9448 28.6947 26.723 28.6955 26.5011 28.6955C26.373 28.6955 25.8607 28.6947 25.7326 28.6947C25.581 28.6947 25.4303 28.6947 25.2741 28.6963C25.0819 28.6963 24.9304 28.6338 24.7969 28.501C22.9621 26.6624 20.5463 24.2434 18.1297 21.8346C18.068 21.7729 17.9852 21.6768 17.9852 21.555C17.9852 21.4331 18.0641 21.3394 18.1328 21.2722C19.1763 20.2342 20.294 19.1212 21.382 18.0159C21.4758 17.9207 21.5664 17.8738 21.6577 17.8738C21.7882 17.8738 21.8772 17.9652 21.9569 18.0464L21.9866 18.0769C23.0316 19.1235 24.0767 20.1678 25.1226 21.2136L26.302 22.393C26.4972 22.5883 26.6933 22.7844 26.8878 22.9804C27.3916 23.4842 27.9117 24.0059 28.428 24.5136C28.6272 24.7081 28.71 24.9096 28.6983 25.1674C28.6873 25.3947 28.6897 25.629 28.692 25.8547C28.6928 25.9539 28.6936 26.0531 28.6936 26.1508C28.6936 26.264 28.6944 26.3773 28.6944 26.4905V26.4929Z" fill="#38A3A5"/>
<path d="M15.6075 11.2441C13.6455 11.2441 12.0318 9.65462 12.0107 7.70118C11.9998 6.73031 12.3731 5.81021 13.062 5.1096C13.747 4.41288 14.6546 4.02626 15.6169 4.02157H15.6364C17.5227 4.02157 19.1716 5.60948 19.2372 7.48951C19.2723 8.48615 18.9068 9.43358 18.2093 10.1561C17.5321 10.8582 16.6401 11.2441 15.6997 11.2441H15.6083H15.6075ZM15.6568 5.41187C14.3977 5.41187 13.4073 6.38273 13.4026 7.62229C13.3995 8.23621 13.6346 8.81185 14.0642 9.24378C14.4812 9.66243 15.0311 9.89363 15.6146 9.89363H15.631C16.8502 9.88504 17.8461 8.87824 17.85 7.64963C17.8539 6.42413 16.8768 5.41968 15.6732 5.41187H15.6575H15.6568Z" fill="#24577A"/>
<path d="M15.6123 9.89363C15.0312 9.89363 14.4821 9.66322 14.0666 9.24535C13.6362 8.81263 13.4011 8.23543 13.4042 7.61995C13.4097 6.36087 14.3798 5.41187 15.6607 5.41187H15.6771C16.8776 5.41968 17.8516 6.42335 17.8477 7.64806C17.843 8.87668 16.8479 9.88426 15.6287 9.89285H15.6123V9.89363Z" fill="#38A3A5"/>
</svg>
