<?xml version='1.0' encoding='iso-8859-1'?>
<!DOCTYPE svg PUBLIC '-//W3C//DTD SVG 1.1//EN' 'http://www.w3.org/Graphics/SVG/1.1/DTD/svg11.dtd'>
<!-- Uploaded to: SVG Repo, www.svgrepo.com, Generator: SVG Repo Mixer Tools -->
<svg fill="#000000" height="800px" width="800px" version="1.1" xmlns="http://www.w3.org/2000/svg" viewBox="0 0 297 297" xmlns:xlink="http://www.w3.org/1999/xlink" enable-background="new 0 0 297 297">
  <g>
    <path d="m288.471,83.205h-16.527c-1.263-3.724-2.774-7.365-4.523-10.9l11.693-11.692c3.331-3.331 3.331-8.732 0-12.062l-28.734-28.734c-3.332-3.33-8.731-3.33-12.062,0l-11.693,11.693c-3.534-1.749-7.176-3.259-10.899-4.523v-16.526c0-4.71-3.819-8.529-8.529-8.529h-40.637c-4.71,0-8.529,3.819-8.529,8.529v16.527c-3.724,1.263-7.366,2.774-10.899,4.522l-11.692-11.692c-1.599-1.6-3.769-2.499-6.031-2.499-2.262,0-4.431,0.899-6.031,2.498l-28.733,28.735c-3.331,3.331-3.331,8.731 0,12.061l11.692,11.693c-1.748,3.534-3.259,7.175-4.523,10.9h-16.527c-4.71,0-8.529,3.819-8.529,8.529v40.637c0,4.71 3.819,8.529 8.529,8.529h16.527c1.263,3.723 2.774,7.365 4.522,10.899l-11.692,11.691c-3.331,3.331-3.331,8.732 0,12.062l28.734,28.734c3.332,3.33 8.731,3.33 12.062,0l11.691-11.692c3.534,1.748 7.176,3.259 10.9,4.523v16.526c0,4.71 3.819,8.529 8.529,8.529h40.637c4.71,0 8.529-3.819 8.529-8.529v-16.526c3.723-1.264 7.365-2.774 10.899-4.523l11.692,11.693c3.332,3.33 8.731,3.33 12.062,0l28.734-28.734c3.331-3.331 3.331-8.732 0-12.062l-11.693-11.692c1.748-3.534 3.26-7.176 4.523-10.899h16.527c4.71,0 8.529-3.819 8.529-8.529v-40.638c0.001-4.71-3.818-8.529-8.528-8.529zm-8.528,40.637h-14.35c-3.891,0-7.289,2.634-8.259,6.402-1.69,6.565-4.307,12.873-7.78,18.751-1.98,3.351-1.44,7.617 1.311,10.37l10.157,10.156-16.673,16.673-10.156-10.157c-2.752-2.751-7.02-3.292-10.37-1.311-5.877,3.473-12.186,6.09-18.75,7.779-3.769,0.969-6.403,4.367-6.403,8.259v14.35h-23.58v-14.35c0-3.891-2.634-7.289-6.402-8.259-6.568-1.691-12.877-4.308-18.752-7.779-3.352-1.982-7.616-1.44-10.37,1.311l-10.155,10.156-16.673-16.673 10.156-10.155c2.751-2.752 3.291-7.019 1.312-10.369-3.473-5.877-6.09-12.186-7.78-18.752-0.97-3.769-4.368-6.402-8.259-6.402h-14.35v-23.579h14.35c3.891,0 7.289-2.634 8.259-6.402 1.69-6.568 4.308-12.876 7.78-18.752 1.979-3.351 1.439-7.617-1.312-10.369l-10.156-10.157 16.672-16.673 10.155,10.155c2.752,2.752 7.019,3.291 10.369,1.313 5.877-3.472 12.186-6.09 18.753-7.78 3.769-0.97 6.402-4.368 6.402-8.259v-14.35h23.579v14.35c0,3.892 2.635,7.29 6.403,8.259 6.564,1.689 12.872,4.306 18.75,7.78 3.352,1.979 7.616,1.439 10.37-1.312l10.156-10.157 16.673,16.673-10.157,10.156c-2.751,2.752-3.291,7.019-1.311,10.37 3.473,5.877 6.09,12.186 7.78,18.752 0.97,3.769 4.368,6.402 8.259,6.402h14.35v23.58z"/>
    <path d="m186.879,69.182c-11.816,0-21.429,9.612-21.429,21.429s9.612,21.429 21.429,21.429c11.816,0 21.429-9.612 21.429-21.429s-9.613-21.429-21.429-21.429zm0,27.806c-3.517,0-6.378-2.861-6.378-6.378s2.861-6.378 6.378-6.378 6.378,2.861 6.378,6.378-2.861,6.378-6.378,6.378z"/>
    <path d="m186.879,48.32c-35.142,0-63.732,28.59-63.732,63.732s28.59,63.731 63.732,63.731 63.731-28.589 63.731-63.731-28.589-63.732-63.731-63.732zm-16.003,107.579v-21.637c0-1.742 1.096-3.284 2.735-3.861l1.245-.382 8.791,4.18c2.046,0.972 4.417,0.972 6.463,0l8.791-4.18 1.245,.382c1.638,0.576 2.735,2.118 2.735,3.861v21.637c-4.994,1.828-10.384,2.827-16.003,2.827s-11.008-0.998-16.002-2.827zm47.057-9.041v-12.595c0-8.252-5.26-15.551-13.089-18.161-0.058-0.019-0.115-0.037-0.172-0.055l-4.151-1.274c-1.798-0.552-3.738-0.411-5.439,0.398l-8.202,3.9-8.202-3.9c-1.7-0.808-3.641-0.95-5.439-0.398l-4.151,1.274c-0.058,0.018-0.115,0.036-0.172,0.055-7.829,2.609-13.089,9.908-13.089,18.161v12.596c-9.577-8.553-15.621-20.984-15.621-34.805 0-25.736 20.939-46.675 46.675-46.675s46.674,20.939 46.674,46.675c-0.002,13.819-6.045,26.25-15.622,34.804z"/>
    <path d="m112.378,215.701h-5.556c-0.069-0.168-0.137-0.334-0.208-0.501l3.929-3.929c3.331-3.331 3.331-8.731 0-12.061l-14.686-14.686c-3.331-3.33-8.731-3.331-12.061,0l-3.929,3.929c-0.167-0.071-0.333-0.139-0.501-0.208v-5.556c0-4.71-3.819-8.529-8.529-8.529h-20.768c-4.71,0-8.529,3.819-8.529,8.529v5.556c-0.168,0.069-0.334,0.137-0.501,0.208l-3.929-3.929c-3.33-3.33-8.73-3.33-12.061,0l-14.686,14.686c-3.331,3.331-3.331,8.731 0,12.061l3.929,3.929c-0.071,0.167-0.139,0.333-0.208,0.501h-5.555c-4.71,0-8.529,3.819-8.529,8.529v20.77c0,4.71 3.819,8.529 8.529,8.529h5.556c0.069,0.167 0.137,0.333 0.208,0.5l-3.929,3.929c-3.331,3.331-3.331,8.731 0,12.061l14.686,14.686c3.332,3.33 8.731,3.33 12.062,0l3.928-3.929c0.167,0.071 0.333,0.14 0.501,0.208v5.556c0,4.71 3.819,8.529 8.529,8.529h20.769c4.71,0 8.529-3.819 8.529-8.529v-5.556c0.168-0.069 0.334-0.137 0.501-0.208l3.929,3.929c3.33,3.33 8.73,3.33 12.061,0l14.686-14.686c3.331-3.331 3.331-8.731 0-12.061l-3.929-3.929c0.071-0.167 0.139-0.333 0.208-0.5h5.556c4.71,0 8.529-3.819 8.529-8.529v-20.77c-0.002-4.71-3.82-8.529-8.531-8.529zm-8.528,20.77h-3.165c-3.891,0-7.289,2.634-8.259,6.402-0.766,2.976-1.953,5.836-3.528,8.501-1.979,3.351-1.439,7.617 1.312,10.369l2.243,2.244-2.625,2.625-2.244-2.243c-2.75-2.75-7.016-3.29-10.369-1.312-2.665,1.576-5.526,2.762-8.501,3.528-3.769,0.969-6.403,4.367-6.403,8.259v3.165h-3.712v-3.165c0-3.892-2.635-7.29-6.403-8.259-2.975-0.766-5.836-1.953-8.503-3.528-3.354-1.982-7.616-1.439-10.369,1.312l-2.242,2.243-2.625-2.625 2.243-2.244c2.751-2.751 3.291-7.018 1.312-10.369-1.576-2.665-2.762-5.525-3.528-8.501-0.97-3.769-4.368-6.402-8.259-6.402h-3.165v-3.713h3.165c3.892,0 7.29-2.635 8.259-6.403 0.766-2.975 1.953-5.836 3.528-8.501 1.979-3.351 1.439-7.617-1.312-10.369l-2.243-2.244 2.625-2.625 2.244,2.243c2.75,2.75 7.015,3.29 10.369,1.312 2.665-1.576 5.526-2.762 8.501-3.528 3.769-0.969 6.403-4.367 6.403-8.259v-3.165h3.712v3.165c0,3.892 2.635,7.29 6.403,8.259 2.975,0.766 5.836,1.953 8.501,3.528 3.352,1.98 7.617,1.44 10.369-1.312l2.244-2.243 2.625,2.625-2.243,2.244c-2.751,2.751-3.291,7.018-1.312,10.369 1.576,2.665 2.762,5.526 3.528,8.501 0.969,3.769 4.367,6.403 8.259,6.403h3.165v3.713z"/>
    <path d="m60.454,210.534c-13.278,0-24.081,10.803-24.081,24.081s10.803,24.081 24.081,24.081 24.081-10.803 24.081-24.081-10.803-24.081-24.081-24.081zm0,31.104c-3.872,0-7.024-3.151-7.024-7.024 0-3.872 3.151-7.024 7.024-7.024s7.024,3.151 7.024,7.024c-0.001,3.873-3.152,7.024-7.024,7.024z"/>
  </g>
</svg>