<?xml version="1.0" standalone="no"?>
<!DOCTYPE svg PUBLIC "-//W3C//DTD SVG 20010904//EN"
 "http://www.w3.org/TR/2001/REC-SVG-20010904/DTD/svg10.dtd">
<svg version="1.0" xmlns="http://www.w3.org/2000/svg"
 width="500.000000pt" height="500.000000pt" viewBox="0 0 500.000000 500.000000"
 preserveAspectRatio="xMidYMid meet">
<metadata>
Created by potrace 1.16, written by Peter Selinger 2001-2019
</metadata>
<g transform="translate(0.000000,500.000000) scale(0.100000,-0.100000)"
fill="#000000" stroke="none">
<path d="M3179 1685 c-14 -8 -32 -28 -39 -45 -19 -45 0 -80 63 -116 35 -20 52
-36 52 -49 0 -26 -43 -32 -84 -11 -28 15 -31 15 -45 -6 -22 -30 -20 -35 12
-52 27 -14 62 -19 115 -17 42 2 77 42 77 89 0 44 -13 58 -77 91 -51 25 -60 38
-40 58 13 13 21 14 49 4 28 -10 35 -9 45 6 20 27 15 40 -18 52 -42 15 -78 13
-110 -4z"/>
<path d="M1396 1663 c-2 -16 -8 -64 -11 -108 -3 -44 -8 -99 -12 -122 l-5 -43
35 0 c33 0 34 1 41 46 3 26 6 65 6 87 0 54 10 41 41 -51 20 -59 30 -78 46 -80
17 -3 25 9 48 75 36 99 45 109 45 48 0 -28 3 -67 6 -87 6 -35 9 -38 41 -38 32
0 34 2 29 28 -2 15 -8 63 -11 107 -3 44 -8 99 -12 123 -5 41 -6 42 -42 42
l-37 0 -29 -80 c-17 -44 -32 -80 -35 -80 -3 0 -19 36 -35 80 l-30 80 -37 0
c-32 0 -37 -3 -42 -27z"/>
<path d="M1876 1682 c-3 -6 -56 -136 -113 -279 -4 -9 6 -13 31 -13 32 0 38 4
47 30 11 29 13 30 70 30 58 0 60 -1 70 -30 9 -25 16 -30 45 -30 19 0 34 3 34
7 0 4 -26 72 -57 150 l-57 143 -32 0 c-18 0 -35 -3 -38 -8z"/>
<path d="M2130 1541 l0 -151 63 0 c75 0 122 21 155 70 20 29 23 44 20 93 -4
51 -9 63 -41 95 -36 35 -40 37 -117 40 l-80 4 0 -151z"/>
<path d="M2460 1540 l0 -150 35 0 34 0 3 57 3 57 44 -57 c41 -54 46 -57 88
-57 l45 0 -52 60 -52 60 25 21 c46 35 45 110 -2 146 -9 7 -48 12 -93 13 l-78
0 0 -150z"/>
<path d="M2810 1552 c-70 -175 -68 -162 -27 -162 29 0 37 5 47 30 12 28 15 30
70 30 55 0 59 -1 69 -30 9 -26 15 -30 47 -30 30 0 35 3 30 18 -4 9 -30 77 -59
149 l-52 133 -35 0 -35 0 -55 -138z"/>
<path d="M3506 1682 c-3 -6 -56 -136 -113 -279 -4 -9 6 -13 31 -13 32 0 38 4
47 30 11 29 13 30 70 30 58 0 60 -1 70 -30 9 -25 16 -30 45 -30 19 0 34 3 34
7 0 4 -26 72 -57 150 l-57 143 -32 0 c-18 0 -35 -3 -38 -8z"/>
<path d="M3742 1663 c3 -24 8 -28 41 -31 l37 -3 0 -120 0 -119 30 0 30 0 0
119 0 120 38 3 c32 3 37 7 40 31 l3 27 -111 0 -111 0 3 -27z"/>
<path d="M4030 1540 l0 -150 35 0 35 0 0 150 0 150 -35 0 -35 0 0 -150z"/>
</g>
</svg>
