<?xml version="1.0" encoding="iso-8859-1"?>
<!-- Uploaded to: SVG Repo, www.svgrepo.com, Generator: SVG Repo Mixer Tools -->
<svg fill="#000000" height="800px" width="800px" version="1.1" id="Layer_1" xmlns="http://www.w3.org/2000/svg" xmlns:xlink="http://www.w3.org/1999/xlink" 
	 viewBox="0 0 512 512" xml:space="preserve">
<g>
	<g>
		<path d="M437.019,74.98C388.667,26.628,324.381,0,256,0S123.333,26.628,74.982,74.98C26.628,123.333,0,187.62,0,256
			s26.628,132.667,74.982,181.02C123.333,485.372,187.619,512,256,512s132.667-26.628,181.019-74.98
			C485.372,388.667,512,324.38,512,256S485.372,123.333,437.019,74.98z M256,491.602c-129.911,0-235.602-105.69-235.602-235.602
			S126.089,20.398,256,20.398S491.602,126.089,491.602,256S385.911,491.602,256,491.602z"/>
	</g>
</g>
<g>
	<g>
		<path d="M256,48.514C141.591,48.514,48.513,141.591,48.513,256S141.591,463.486,256,463.486S463.487,370.409,463.487,256
			S370.409,48.514,256,48.514z M256,443.088c-103.161,0-187.089-83.927-187.089-187.088S152.839,68.912,256,68.912
			S443.089,152.839,443.089,256S359.161,443.088,256,443.088z"/>
	</g>
</g>
<g>
	<g>
		<path d="M403.517,244.456c-5.632,0-10.199,4.566-10.199,10.199c0,4.857-0.257,9.754-0.763,14.552
			c-0.592,5.602,3.471,10.622,9.072,11.214c0.365,0.038,0.725,0.057,1.083,0.057c5.152,0,9.577-3.891,10.13-9.129
			c0.581-5.508,0.876-11.124,0.876-16.694C413.716,249.022,409.149,244.456,403.517,244.456z"/>
	</g>
</g>
<g>
	<g>
		<path d="M396.578,300.608c-5.222-2.122-11.168,0.39-13.29,5.607c-21.1,51.899-70.935,85.434-126.964,85.434
			c-75.538,0-136.994-61.455-136.994-136.994c0-45.116,22.525-87.467,59.398-112.893l0.249,0.587
			c3.302,7.801,13.81,9.104,18.915,2.344l13.803-18.277c5.105-6.759,0.979-16.509-7.427-17.552l-22.73-2.818
			c-8.407-1.042-14.789,7.407-11.488,15.208l0.585,1.383c-20.479,13.322-37.714,31.3-50.112,52.406
			c-14.125,24.046-21.592,51.575-21.592,79.612c0,86.786,70.606,157.392,157.392,157.392c31.924,0,62.666-9.508,88.901-27.495
			c25.608-17.558,45.305-41.99,56.958-70.655C404.306,308.679,401.795,302.73,396.578,300.608z"/>
	</g>
</g>
<g>
	<g>
		<path d="M241.284,299.857h-38.172c3.47-3.038,7.119-6.343,10.782-9.829c23.969-22.82,35.622-41.04,35.622-55.701
			c0-24.605-20.017-44.622-44.622-44.622s-44.622,20.017-44.622,44.622c0,5.633,4.567,10.199,10.199,10.199
			c5.632,0,10.199-4.566,10.199-10.199c0-13.357,10.866-24.223,24.223-24.223c13.13,0,24.223,11.093,24.223,24.223
			c0,3.052-2.101,15.01-29.149,40.795c-15.582,14.855-31.458,26.61-31.614,26.726c-3.545,2.614-5.012,7.21-3.636,11.395
			c1.377,4.185,5.284,7.013,9.689,7.013h66.877c5.633,0,10.199-4.566,10.199-10.199
			C251.483,304.423,246.916,299.857,241.284,299.857z"/>
	</g>
</g>
<g>
	<g>
		<path d="M348.813,268.385h-12.749v-68.481c0-4.41-2.835-8.32-7.026-9.693c-4.19-1.371-8.79,0.104-11.399,3.661l-57.698,78.68
			c-2.272,3.1-2.609,7.214-0.872,10.642s5.254,5.589,9.098,5.589h47.499v21.272c0,5.633,4.567,10.199,10.199,10.199
			s10.199-4.566,10.199-10.199v-21.272h12.749c5.632,0,10.199-4.566,10.199-10.199S354.445,268.385,348.813,268.385z
			 M315.665,268.385h-27.372l27.372-37.326V268.385z"/>
	</g>
</g>
</svg>