<svg width="24" height="24" viewBox="0 0 24 24" fill="none" xmlns="http://www.w3.org/2000/svg">
<g clip-path="url(#clip0_930_10085)">
<path d="M7.70003 15.0074C7.41874 15.2886 7.03727 15.4466 6.63953 15.4466C6.24178 15.4466 5.86032 15.2886 5.57903 15.0074L0.858026 10.2824C0.30862 9.73263 0 8.98718 0 8.20992C0 7.43267 0.30862 6.68722 0.858026 6.13742L5.58303 1.41242C5.86844 1.15302 6.24281 1.01352 6.62838 1.02291C7.01395 1.03229 7.38109 1.18983 7.65356 1.4628C7.92602 1.73578 8.08286 2.10322 8.09152 2.4888C8.10017 2.87439 7.95997 3.2485 7.70003 3.53342L4.46703 6.70042H18.68C20.0904 6.70175 21.4426 7.26253 22.44 8.25972C23.4374 9.25691 23.9984 10.6091 24 12.0194V18.7004C23.9987 20.1104 23.438 21.4623 22.441 22.4594C21.4439 23.4564 20.092 24.0171 18.682 24.0184H5.31803C4.9202 24.0184 4.53867 23.8604 4.25737 23.5791C3.97606 23.2978 3.81803 22.9162 3.81803 22.5184C3.81803 22.1206 3.97606 21.7391 4.25737 21.4578C4.53867 21.1765 4.9202 21.0184 5.31803 21.0184H18.681C19.2957 21.0179 19.8851 20.7735 20.3199 20.339C20.7546 19.9044 20.9992 19.3151 21 18.7004V12.0194C20.9995 11.4044 20.7549 10.8147 20.3199 10.3799C19.8849 9.94506 19.2951 9.70069 18.68 9.70042H4.52203L7.70003 12.8864C7.98123 13.1677 8.13921 13.5492 8.13921 13.9469C8.13921 14.3447 7.98123 14.7261 7.70003 15.0074Z" fill="black"/>
</g>
<defs>
<clipPath id="clip0_930_10085">
<rect width="24" height="24" fill="white"/>
</clipPath>
</defs>
</svg>
